<?xml version="1.0" encoding="utf-8"?>
<!-- Generator: Adobe Illustrator 21.0.2, SVG Export Plug-In . SVG Version: 6.00 Build 0)  -->
<svg version="1.1" id="Layer_1" xmlns="http://www.w3.org/2000/svg" xmlns:xlink="http://www.w3.org/1999/xlink" x="0px" y="0px"
	 viewBox="0 0 512 512" style="enable-background:new 0 0 512 512;" xml:space="preserve">
<path d="M5.9,275.7C2,271.8,0,265.8,0,261.9s2-9.8,5.9-13.8l27.6-27.6c7.9-7.9,19.7-7.9,27.6,0l2,2l108.3,116.2
	c3.9,3.9,9.8,3.9,13.8,0L449,65h2l0,0c7.9-7.9,19.7-7.9,27.6,0l27.6,27.6c7.9,7.9,7.9,19.7,0,27.6l0,0L191,447
	c-3.9,3.9-7.9,5.9-13.8,5.9s-9.8-2-13.8-5.9L9.8,281.6L5.9,275.7L5.9,275.7z"/>
</svg>
