<?xml version="1.0" encoding="utf-8"?>
<!-- Generator: Adobe Illustrator 21.0.2, SVG Export Plug-In . SVG Version: 6.00 Build 0)  -->
<svg version="1.1" id="Capa_1" xmlns="http://www.w3.org/2000/svg" xmlns:xlink="http://www.w3.org/1999/xlink" x="0px" y="0px"
	 viewBox="0 0 612.8 612.8" style="enable-background:new 0 0 612.8 612.8;" xml:space="preserve">
<g>
	<path d="M306.4,0c-169,0-306,137-306,306s137,306.8,306,306.8s306-137.8,306-306C612.4,137.7,475.4,0,306.4,0z M306.4,583.1
		C154.2,583.1,30,459,30,306.8S154.2,29.6,306.4,29.6s276.4,124.2,276.4,277.2S458.6,583.1,306.4,583.1z M321.6,431.8
		c0,8.8-7.2,16-16,16c-8.8,0-16-7.2-16-16c0-8.8,7.2-16,16-16S321.6,422.9,321.6,431.8z M290.4,353.2V173c0-8,6.4-14.4,14.4-14.4
		c8,0,14.4,6.4,14.4,14.4v180.2c0,8-6.4,14.4-14.4,14.4C296.8,368.5,290.4,361.2,290.4,353.2z"/>
</g>
</svg>
