<?xml version="1.0" encoding="utf-8"?>
<!-- Generator: Adobe Illustrator 21.0.2, SVG Export Plug-In . SVG Version: 6.00 Build 0)  -->
<svg version="1.1" id="Layer_1" xmlns="http://www.w3.org/2000/svg" xmlns:xlink="http://www.w3.org/1999/xlink" x="0px" y="0px"
	 viewBox="0 0 244 65.3" style="enable-background:new 0 0 244 65.3;" xml:space="preserve">
<style type="text/css">
	.st0{fill:#FFFFFF;}
</style>
<g>
	<g>
		<g>
			<polygon class="st0" points="8.8,57.7 5.8,50.5 5.8,50.4 4.7,50.4 4.7,59 5.6,59 5.6,55.2 5.5,52 8.4,58.9 8.5,59 9.1,59 12,52 
				12,55.2 12,59 12.9,59 12.9,50.4 11.8,50.4 			"/>
			<path class="st0" d="M18.7,50.3c-1,0-1.8,0.3-2.4,1c-0.6,0.7-0.9,1.6-0.9,2.7v1.4c0,1.1,0.3,2,0.9,2.7c0.6,0.7,1.4,1,2.4,1
				c1,0,1.8-0.3,2.5-1c0.6-0.7,0.9-1.6,0.9-2.7V54c0-1.1-0.3-2-0.9-2.7C20.6,50.7,19.8,50.3,18.7,50.3z M21.2,54v1.4
				c0,0.9-0.2,1.6-0.7,2.1c-0.4,0.5-1,0.8-1.8,0.8c-0.8,0-1.3-0.3-1.8-0.8c-0.4-0.5-0.6-1.2-0.6-2.1V54c0-0.9,0.2-1.6,0.6-2.1
				c0.4-0.5,1-0.8,1.8-0.8c0.8,0,1.4,0.3,1.8,0.8C21,52.4,21.2,53.2,21.2,54z"/>
			<path class="st0" d="M28.9,54.5c0.3-0.1,0.5-0.3,0.7-0.6c0.3-0.3,0.4-0.7,0.4-1.2c0-0.8-0.3-1.3-0.8-1.7
				c-0.5-0.4-1.2-0.6-2.1-0.6h-2.5V59h3c0.8,0,1.5-0.2,2-0.6c0.5-0.4,0.8-1,0.8-1.8c0-0.5-0.2-1-0.5-1.4
				C29.6,54.8,29.3,54.6,28.9,54.5z M25.5,54.2v-2.9h1.6c0.6,0,1.1,0.1,1.5,0.4c0.3,0.2,0.5,0.6,0.5,1.1c0,0.5-0.1,0.8-0.5,1.1
				c-0.3,0.2-0.8,0.4-1.3,0.4H25.5z M29.5,56.6c0,0.5-0.2,0.9-0.5,1.2c-0.3,0.3-0.8,0.4-1.4,0.4h-2.1V55h2.2c0.6,0,1,0.2,1.3,0.4
				C29.4,55.7,29.5,56.1,29.5,56.6z"/>
			<rect x="33" y="50.4" class="st0" width="0.9" height="8.5"/>
			<polygon class="st0" points="37.9,50.4 37,50.4 37,59 42,59 42,58.2 37.9,58.2 			"/>
			<path class="st0" d="M48.9,56.2c0,0.7-0.2,1.2-0.6,1.6c-0.4,0.4-0.9,0.6-1.6,0.6c-0.6,0-1.2-0.2-1.6-0.6
				c-0.4-0.4-0.6-0.9-0.6-1.6v-5.8h-0.9v5.8c0,0.9,0.3,1.7,0.9,2.2c0.6,0.5,1.3,0.7,2.2,0.7c0.9,0,1.7-0.3,2.2-0.7
				c0.6-0.5,0.9-1.2,0.9-2.2v-5.8h-0.9V56.2z"/>
			<polygon class="st0" points="58.1,57.4 53.5,50.4 52.6,50.4 52.6,59 53.5,59 53.5,52 58.1,59 59,59 59,50.4 58.1,50.4 			"/>
			<rect x="62" y="50.4" class="st0" width="0.9" height="8.5"/>
			<polygon class="st0" points="65,51.2 67.9,51.2 67.9,59 68.8,59 68.8,51.2 71.6,51.2 71.6,50.4 65,50.4 			"/>
			<polygon class="st0" points="78.9,50.4 76.4,55 73.9,50.4 72.8,50.4 75.9,55.8 75.9,59 76.8,59 76.8,55.9 79.9,50.4 			"/>
		</g>
		<path class="st0" d="M65.5,14.6l-6.3-6.9L56.5,15l0.9,6.1L48,20.6l-9.6-10.2L26.6,4.1l0,0L10.7,9.3l0,0L4.7,24.1l8.5,12.2l0.1,0.1
			l11.4,3.8l10.8,0.4l9.1,3.4l7-2.9L47,36.9l16.4-12.7h7.5l9.1-9.6H65.5z M78,15.4l-7.5,7.9h-7.1l-1.7-1.7l3.8-6.2H78z M64.8,15.1
			L61,21.3l-2.8-0.1l-0.9-6.1l2.2-5.8L64.8,15.1z M61.2,22.2l1.4,1.5L46.4,36.3l-3.7-3.4L61.2,22.2z M42.5,32l0-7.7l5.4-2.8
			l11.9,0.6L42.5,32z M42.1,23.6l-11.8-6.8l7.7-5.6l9.1,9.7L42.1,23.6z M19.6,27.5l9.6,5.6l5.5,6.7l-9.8-0.4l-11.1-3.7L6.1,24.7
			L19.6,27.5z M28.8,17l-9.1,9.6L5.7,23.7l5.4-13.6L28.8,17z M29.5,16.4L12.2,9.7L26.5,5l10.8,5.7L29.5,16.4z M41.7,24.3l0,8.1h-12
			L20.5,27l9.1-9.6L41.7,24.3z M35.8,39.9l-5.5-6.7h11.5l8.2,7.8l-5.5,2.2L35.8,39.9z"/>
	</g>
	<g>
		<path class="st0" d="M107.5,8.9v6c0,1-0.3,1.7-0.9,2.2s-1.4,0.8-2.4,0.8c-1,0-1.7-0.3-2.3-0.8c-0.6-0.5-0.9-1.2-0.9-2.2v-6h1.2
			v5.9c0,0.7,0.2,1.2,0.6,1.5c0.4,0.3,0.9,0.5,1.5,0.5c0.7,0,1.2-0.2,1.6-0.5c0.4-0.3,0.6-0.8,0.6-1.5V8.9H107.5z"/>
		<path class="st0" d="M111.7,14.6H111v3h-1.2V8.2h1.2v5.5h0.8l1.8-2.6h1.4l-2.2,3l2.6,3.6h-1.4L111.7,14.6z"/>
		<path class="st0" d="M119.9,12.2l-0.6,0c-0.3,0-0.6,0.1-0.8,0.2c-0.2,0.1-0.4,0.4-0.5,0.6v4.7h-1.2v-6.5h1.1l0.1,1
			c0.2-0.3,0.4-0.6,0.7-0.8s0.6-0.3,0.9-0.3c0.1,0,0.2,0,0.3,0c0.1,0,0.1,0,0.2,0L119.9,12.2z"/>
		<path class="st0" d="M125.5,17.6c0-0.2-0.1-0.4-0.1-0.5c0-0.2,0-0.3,0-0.5c-0.2,0.3-0.5,0.6-0.9,0.8c-0.4,0.2-0.7,0.3-1.1,0.3
			c-0.7,0-1.2-0.2-1.6-0.5c-0.4-0.3-0.5-0.8-0.5-1.4c0-0.6,0.3-1.1,0.8-1.5c0.5-0.4,1.2-0.5,2.1-0.5h1.3v-0.6c0-0.4-0.1-0.7-0.3-0.9
			s-0.6-0.3-1-0.3c-0.4,0-0.7,0.1-0.9,0.3s-0.4,0.4-0.4,0.7h-1.1l0,0c0-0.5,0.2-0.9,0.7-1.3s1.1-0.6,1.8-0.6c0.7,0,1.3,0.2,1.8,0.6
			c0.5,0.4,0.7,0.9,0.7,1.6v3.1c0,0.2,0,0.5,0,0.7c0,0.2,0.1,0.4,0.1,0.6H125.5z M123.6,16.8c0.4,0,0.8-0.1,1.2-0.3
			c0.3-0.2,0.6-0.5,0.7-0.8v-1.1h-1.3c-0.5,0-0.9,0.1-1.1,0.4c-0.3,0.2-0.4,0.5-0.4,0.8c0,0.3,0.1,0.5,0.3,0.7
			C123,16.7,123.2,16.8,123.6,16.8z"/>
		<path class="st0" d="M130.1,9.4h-1.2V8.2h1.2V9.4z M130.1,17.6h-1.2v-6.5h1.2V17.6z"/>
		<path class="st0" d="M133.5,11.1l0.1,1c0.2-0.3,0.5-0.6,0.8-0.8c0.3-0.2,0.7-0.3,1.1-0.3c0.7,0,1.2,0.2,1.6,0.6s0.6,1,0.6,1.9v4.1
			h-1.2v-4.1c0-0.6-0.1-1-0.3-1.2s-0.6-0.4-1-0.4c-0.3,0-0.6,0.1-0.9,0.2c-0.3,0.2-0.5,0.4-0.6,0.7v4.8h-1.2v-6.5H133.5z"/>
		<path class="st0" d="M141.3,9.4h-1.2V8.2h1.2V9.4z M141.3,17.6h-1.2v-6.5h1.2V17.6z"/>
		<path class="st0" d="M147.6,17.6c0-0.2-0.1-0.4-0.1-0.5c0-0.2,0-0.3,0-0.5c-0.2,0.3-0.5,0.6-0.9,0.8c-0.4,0.2-0.7,0.3-1.1,0.3
			c-0.7,0-1.2-0.2-1.6-0.5c-0.4-0.3-0.5-0.8-0.5-1.4c0-0.6,0.3-1.1,0.8-1.5c0.5-0.4,1.2-0.5,2.1-0.5h1.3v-0.6c0-0.4-0.1-0.7-0.3-0.9
			s-0.6-0.3-1-0.3c-0.4,0-0.7,0.1-0.9,0.3s-0.4,0.4-0.4,0.7h-1.1l0,0c0-0.5,0.2-0.9,0.7-1.3s1.1-0.6,1.8-0.6c0.7,0,1.3,0.2,1.8,0.6
			c0.5,0.4,0.7,0.9,0.7,1.6v3.1c0,0.2,0,0.5,0,0.7c0,0.2,0.1,0.4,0.1,0.6H147.6z M145.7,16.8c0.4,0,0.8-0.1,1.2-0.3
			c0.3-0.2,0.6-0.5,0.7-0.8v-1.1h-1.3c-0.5,0-0.9,0.1-1.1,0.4c-0.3,0.2-0.4,0.5-0.4,0.8c0,0.3,0.1,0.5,0.3,0.7
			C145,16.7,145.3,16.8,145.7,16.8z"/>
		<path class="st0" d="M152,11.1l0.1,1c0.2-0.3,0.5-0.6,0.8-0.8c0.3-0.2,0.7-0.3,1.1-0.3c0.7,0,1.2,0.2,1.6,0.6s0.6,1,0.6,1.9v4.1
			h-1.2v-4.1c0-0.6-0.1-1-0.3-1.2s-0.6-0.4-1-0.4c-0.3,0-0.6,0.1-0.9,0.2c-0.3,0.2-0.5,0.4-0.6,0.7v4.8H151v-6.5H152z"/>
		<path class="st0" d="M162.4,17.6V8.9h2.7c1.2,0,2.1,0.4,2.8,1.1c0.7,0.7,1,1.6,1,2.7v1.2c0,1.1-0.3,2-1,2.7
			c-0.7,0.7-1.6,1.1-2.8,1.1H162.4z M163.6,9.8v6.9h1.5c0.8,0,1.5-0.3,1.9-0.8c0.5-0.5,0.7-1.2,0.7-2.1v-1.2c0-0.8-0.2-1.5-0.7-2
			c-0.5-0.5-1.1-0.8-1.9-0.8H163.6z"/>
		<path class="st0" d="M173.6,17.8c-0.9,0-1.6-0.3-2.2-0.9s-0.8-1.4-0.8-2.4v-0.3c0-0.9,0.3-1.7,0.8-2.3s1.2-0.9,2-0.9
			c0.9,0,1.5,0.3,2,0.8s0.7,1.2,0.7,2.1v0.7h-4.2l0,0c0,0.6,0.2,1.1,0.5,1.5s0.7,0.6,1.3,0.6c0.4,0,0.8-0.1,1.1-0.2
			c0.3-0.1,0.6-0.3,0.8-0.5l0.5,0.8c-0.2,0.2-0.5,0.4-0.9,0.6C174.6,17.7,174.2,17.8,173.6,17.8z M173.5,11.9c-0.4,0-0.7,0.2-1,0.5
			c-0.3,0.3-0.5,0.8-0.5,1.3l0,0h3v-0.2c0-0.5-0.1-0.9-0.4-1.2C174.3,12.1,173.9,11.9,173.5,11.9z"/>
		<path class="st0" d="M180.1,15.7l0.1,0.5h0l0.1-0.5l1.5-4.6h1.2l-2.4,6.5h-0.9l-2.4-6.5h1.2L180.1,15.7z"/>
		<path class="st0" d="M187.2,17.8c-0.9,0-1.6-0.3-2.2-0.9s-0.8-1.4-0.8-2.4v-0.3c0-0.9,0.3-1.7,0.8-2.3s1.2-0.9,2-0.9
			c0.9,0,1.5,0.3,2,0.8s0.7,1.2,0.7,2.1v0.7h-4.2l0,0c0,0.6,0.2,1.1,0.5,1.5s0.7,0.6,1.3,0.6c0.4,0,0.8-0.1,1.1-0.2
			c0.3-0.1,0.6-0.3,0.8-0.5l0.5,0.8c-0.2,0.2-0.5,0.4-0.9,0.6C188.2,17.7,187.7,17.8,187.2,17.8z M187,11.9c-0.4,0-0.7,0.2-1,0.5
			c-0.3,0.3-0.5,0.8-0.5,1.3l0,0h3v-0.2c0-0.5-0.1-0.9-0.4-1.2C187.8,12.1,187.5,11.9,187,11.9z"/>
		<path class="st0" d="M192.9,17.6h-1.2V8.2h1.2V17.6z"/>
		<path class="st0" d="M195,14.3c0-1,0.3-1.8,0.8-2.4c0.5-0.6,1.2-0.9,2.1-0.9c0.9,0,1.6,0.3,2.1,0.9c0.5,0.6,0.8,1.4,0.8,2.4v0.1
			c0,1-0.3,1.8-0.8,2.4c-0.5,0.6-1.2,0.9-2.1,0.9c-0.9,0-1.6-0.3-2.1-0.9c-0.5-0.6-0.8-1.4-0.8-2.4V14.3z M196.1,14.5
			c0,0.7,0.1,1.3,0.4,1.7c0.3,0.5,0.7,0.7,1.3,0.7c0.6,0,1-0.2,1.3-0.7c0.3-0.4,0.4-1,0.4-1.7v-0.1c0-0.7-0.1-1.3-0.4-1.7
			c-0.3-0.5-0.7-0.7-1.3-0.7c-0.6,0-1,0.2-1.3,0.7c-0.3,0.5-0.4,1-0.4,1.7V14.5z"/>
		<path class="st0" d="M208.4,14.6c0,0.9-0.2,1.7-0.7,2.3s-1.1,0.9-1.9,0.9c-0.4,0-0.8-0.1-1.1-0.2s-0.6-0.3-0.8-0.6v3.2h-1.2v-9
			h0.9l0.2,0.8c0.2-0.3,0.5-0.6,0.8-0.7s0.7-0.2,1.1-0.2c0.8,0,1.4,0.3,1.9,1s0.7,1.5,0.7,2.5V14.6z M207.2,14.5
			c0-0.7-0.1-1.3-0.4-1.8c-0.3-0.5-0.7-0.7-1.3-0.7c-0.3,0-0.6,0.1-0.9,0.2c-0.2,0.2-0.4,0.4-0.6,0.6V16c0.1,0.3,0.3,0.5,0.6,0.6
			c0.2,0.2,0.5,0.2,0.9,0.2c0.6,0,1-0.2,1.3-0.6c0.3-0.4,0.4-0.9,0.4-1.6V14.5z"/>
		<path class="st0" d="M211.5,11.1l0.1,0.9c0.2-0.3,0.5-0.5,0.8-0.7c0.3-0.2,0.7-0.3,1.1-0.3c0.4,0,0.8,0.1,1.1,0.3
			c0.3,0.2,0.5,0.5,0.7,0.9c0.2-0.4,0.5-0.7,0.8-0.9c0.3-0.2,0.7-0.3,1.2-0.3c0.7,0,1.2,0.2,1.6,0.7c0.4,0.5,0.6,1.1,0.6,2.1v3.9
			h-1.2v-3.9c0-0.6-0.1-1.1-0.3-1.4c-0.2-0.3-0.6-0.4-1-0.4c-0.4,0-0.7,0.1-1,0.4c-0.3,0.3-0.4,0.6-0.4,1.1v0v4.1h-1.2v-3.9
			c0-0.6-0.1-1.1-0.3-1.3c-0.2-0.3-0.6-0.4-1-0.4c-0.4,0-0.7,0.1-0.9,0.2c-0.2,0.1-0.4,0.4-0.5,0.6v4.8h-1.2v-6.5H211.5z"/>
		<path class="st0" d="M224.5,17.8c-0.9,0-1.6-0.3-2.2-0.9s-0.8-1.4-0.8-2.4v-0.3c0-0.9,0.3-1.7,0.8-2.3s1.2-0.9,2-0.9
			c0.9,0,1.5,0.3,2,0.8s0.7,1.2,0.7,2.1v0.7h-4.2l0,0c0,0.6,0.2,1.1,0.5,1.5s0.7,0.6,1.3,0.6c0.4,0,0.8-0.1,1.1-0.2
			c0.3-0.1,0.6-0.3,0.8-0.5l0.5,0.8c-0.2,0.2-0.5,0.4-0.9,0.6C225.5,17.7,225,17.8,224.5,17.8z M224.3,11.9c-0.4,0-0.7,0.2-1,0.5
			c-0.3,0.3-0.5,0.8-0.5,1.3l0,0h3v-0.2c0-0.5-0.1-0.9-0.4-1.2C225.2,12.1,224.8,11.9,224.3,11.9z"/>
		<path class="st0" d="M230,11.1l0.1,1c0.2-0.3,0.5-0.6,0.8-0.8c0.3-0.2,0.7-0.3,1.1-0.3c0.7,0,1.2,0.2,1.6,0.6s0.6,1,0.6,1.9v4.1
			h-1.2v-4.1c0-0.6-0.1-1-0.3-1.2s-0.6-0.4-1-0.4c-0.3,0-0.6,0.1-0.9,0.2c-0.3,0.2-0.5,0.4-0.6,0.7v4.8h-1.2v-6.5H230z"/>
		<path class="st0" d="M238,9.5v1.6h1.2V12H238v4c0,0.3,0.1,0.5,0.2,0.6c0.1,0.1,0.3,0.2,0.5,0.2c0.1,0,0.1,0,0.2,0
			c0.1,0,0.2,0,0.2-0.1l0.2,0.8c-0.1,0.1-0.2,0.1-0.4,0.2c-0.2,0-0.3,0.1-0.5,0.1c-0.5,0-0.9-0.1-1.2-0.4s-0.4-0.7-0.4-1.4v-4h-1
			v-0.9h1V9.5H238z"/>
		<path class="st0" d="M102.8,34.6l0.2,1.1l0,0l0.2-1.1l1.6-5.7h1l1.6,5.7l0.2,1.1h0l0.2-1.1l1.3-5.7h1.2l-2.1,8.8h-1.1l-1.7-6.1
			l-0.2-0.8h0l-0.2,0.8l-1.8,6.1h-1.1l-2.1-8.8h1.2L102.8,34.6z"/>
		<path class="st0" d="M115,37.7c-0.9,0-1.6-0.3-2.2-0.9c-0.5-0.6-0.8-1.4-0.8-2.4v-0.3c0-0.9,0.3-1.7,0.8-2.3
			c0.6-0.6,1.2-0.9,2-0.9c0.9,0,1.5,0.3,2,0.8c0.5,0.5,0.7,1.2,0.7,2.1v0.7h-4.2l0,0c0,0.6,0.2,1.1,0.5,1.5s0.7,0.6,1.3,0.6
			c0.4,0,0.8-0.1,1.1-0.2c0.3-0.1,0.6-0.3,0.8-0.5l0.5,0.8c-0.2,0.2-0.5,0.4-0.9,0.6C116,37.7,115.6,37.7,115,37.7z M114.8,31.9
			c-0.4,0-0.7,0.2-1,0.5c-0.3,0.3-0.5,0.8-0.5,1.3l0,0h3v-0.2c0-0.5-0.1-0.9-0.4-1.2C115.7,32,115.3,31.9,114.8,31.9z"/>
		<path class="st0" d="M123.6,35.9c0-0.3-0.1-0.5-0.3-0.6s-0.6-0.3-1.1-0.4c-0.8-0.2-1.4-0.4-1.8-0.7c-0.4-0.3-0.6-0.7-0.6-1.2
			c0-0.5,0.2-1,0.7-1.4c0.5-0.4,1-0.6,1.8-0.6c0.8,0,1.4,0.2,1.8,0.6c0.4,0.4,0.7,0.9,0.6,1.4l0,0h-1.1c0-0.3-0.1-0.5-0.4-0.8
			c-0.2-0.2-0.6-0.3-1-0.3c-0.4,0-0.7,0.1-0.9,0.3c-0.2,0.2-0.3,0.4-0.3,0.7c0,0.3,0.1,0.5,0.3,0.6c0.2,0.1,0.5,0.3,1.1,0.4
			c0.8,0.2,1.4,0.4,1.8,0.7s0.6,0.7,0.6,1.2c0,0.6-0.2,1-0.7,1.4s-1.1,0.5-1.8,0.5c-0.8,0-1.5-0.2-2-0.6c-0.5-0.4-0.7-0.9-0.7-1.5
			l0,0h1.1c0,0.4,0.2,0.7,0.5,0.9c0.3,0.2,0.6,0.3,1,0.3c0.4,0,0.8-0.1,1-0.3S123.6,36.1,123.6,35.9z"/>
		<path class="st0" d="M128.8,29.5v1.6h1.2V32h-1.2v4c0,0.3,0.1,0.5,0.2,0.6c0.1,0.1,0.3,0.2,0.5,0.2c0.1,0,0.1,0,0.2,0
			c0.1,0,0.2,0,0.2-0.1l0.2,0.8c-0.1,0.1-0.2,0.1-0.4,0.2c-0.2,0-0.3,0.1-0.5,0.1c-0.5,0-0.9-0.1-1.2-0.4c-0.3-0.3-0.4-0.7-0.4-1.4
			v-4h-1v-0.9h1v-1.6H128.8z"/>
		<path class="st0" d="M134.9,37.7c-0.9,0-1.6-0.3-2.2-0.9c-0.5-0.6-0.8-1.4-0.8-2.4v-0.3c0-0.9,0.3-1.7,0.8-2.3
			c0.6-0.6,1.2-0.9,2-0.9c0.9,0,1.5,0.3,2,0.8c0.5,0.5,0.7,1.2,0.7,2.1v0.7h-4.2l0,0c0,0.6,0.2,1.1,0.5,1.5s0.7,0.6,1.3,0.6
			c0.4,0,0.8-0.1,1.1-0.2c0.3-0.1,0.6-0.3,0.8-0.5l0.5,0.8c-0.2,0.2-0.5,0.4-0.9,0.6C135.9,37.7,135.5,37.7,134.9,37.7z M134.7,31.9
			c-0.4,0-0.7,0.2-1,0.5c-0.3,0.3-0.5,0.8-0.5,1.3l0,0h3v-0.2c0-0.5-0.1-0.9-0.4-1.2C135.6,32,135.2,31.9,134.7,31.9z"/>
		<path class="st0" d="M142.9,32.1l-0.6,0c-0.3,0-0.6,0.1-0.8,0.2c-0.2,0.1-0.4,0.4-0.5,0.6v4.7h-1.2v-6.5h1.1l0.1,1
			c0.2-0.3,0.4-0.6,0.7-0.8s0.6-0.3,0.9-0.3c0.1,0,0.2,0,0.3,0c0.1,0,0.1,0,0.2,0L142.9,32.1z"/>
		<path class="st0" d="M146.2,31.1l0.1,1c0.2-0.3,0.5-0.6,0.8-0.8c0.3-0.2,0.7-0.3,1.1-0.3c0.7,0,1.2,0.2,1.6,0.6s0.6,1,0.6,1.9v4.1
			h-1.2v-4.1c0-0.6-0.1-1-0.3-1.2s-0.6-0.4-1-0.4c-0.3,0-0.6,0.1-0.9,0.2c-0.3,0.2-0.5,0.4-0.6,0.7v4.8h-1.2v-6.5H146.2z"/>
		<path class="st0" d="M159,28.8l2.8,7.1h0l2.8-7.1h1.5v8.8h-1.2v-3.5l0.1-3.6l0,0l-2.8,7.1h-0.8l-2.8-7l0,0l0.1,3.6v3.5h-1.2v-8.8
			H159z"/>
		<path class="st0" d="M172.9,37.6c0-0.2-0.1-0.4-0.1-0.5c0-0.2,0-0.3,0-0.5c-0.2,0.3-0.5,0.6-0.9,0.8c-0.4,0.2-0.7,0.3-1.1,0.3
			c-0.7,0-1.2-0.2-1.6-0.5c-0.4-0.3-0.5-0.8-0.5-1.4c0-0.6,0.3-1.1,0.8-1.5c0.5-0.4,1.2-0.5,2.1-0.5h1.3v-0.6c0-0.4-0.1-0.7-0.3-0.9
			s-0.6-0.3-1-0.3c-0.4,0-0.7,0.1-0.9,0.3c-0.2,0.2-0.4,0.4-0.4,0.7H169l0,0c0-0.5,0.2-0.9,0.7-1.3s1.1-0.6,1.8-0.6
			c0.7,0,1.3,0.2,1.8,0.6c0.5,0.4,0.7,0.9,0.7,1.6v3.1c0,0.2,0,0.5,0,0.7c0,0.2,0.1,0.4,0.1,0.6H172.9z M171,36.7
			c0.4,0,0.8-0.1,1.2-0.3c0.3-0.2,0.6-0.5,0.7-0.8v-1.1h-1.3c-0.5,0-0.9,0.1-1.1,0.4c-0.3,0.2-0.4,0.5-0.4,0.8
			c0,0.3,0.1,0.5,0.3,0.7C170.3,36.6,170.6,36.7,171,36.7z"/>
		<path class="st0" d="M177.8,31.1l0.1,1c0.2-0.3,0.5-0.6,0.8-0.8c0.3-0.2,0.7-0.3,1.1-0.3c0.7,0,1.2,0.2,1.6,0.6s0.6,1,0.6,1.9v4.1
			h-1.2v-4.1c0-0.6-0.1-1-0.3-1.2s-0.6-0.4-1-0.4c-0.3,0-0.6,0.1-0.9,0.2c-0.3,0.2-0.5,0.4-0.6,0.7v4.8h-1.2v-6.5H177.8z"/>
		<path class="st0" d="M188.7,37.6c0-0.2-0.1-0.4-0.1-0.5c0-0.2,0-0.3,0-0.5c-0.2,0.3-0.5,0.6-0.9,0.8c-0.4,0.2-0.7,0.3-1.1,0.3
			c-0.7,0-1.2-0.2-1.6-0.5c-0.4-0.3-0.5-0.8-0.5-1.4c0-0.6,0.3-1.1,0.8-1.5c0.5-0.4,1.2-0.5,2.1-0.5h1.3v-0.6c0-0.4-0.1-0.7-0.3-0.9
			s-0.6-0.3-1-0.3c-0.4,0-0.7,0.1-0.9,0.3c-0.2,0.2-0.4,0.4-0.4,0.7h-1.1l0,0c0-0.5,0.2-0.9,0.7-1.3s1.1-0.6,1.8-0.6
			c0.7,0,1.3,0.2,1.8,0.6c0.5,0.4,0.7,0.9,0.7,1.6v3.1c0,0.2,0,0.5,0,0.7c0,0.2,0.1,0.4,0.1,0.6H188.7z M186.7,36.7
			c0.4,0,0.8-0.1,1.2-0.3c0.3-0.2,0.6-0.5,0.7-0.8v-1.1h-1.3c-0.5,0-0.9,0.1-1.1,0.4c-0.3,0.2-0.4,0.5-0.4,0.8
			c0,0.3,0.1,0.5,0.3,0.7C186.1,36.6,186.3,36.7,186.7,36.7z"/>
		<path class="st0" d="M192.1,34.5c0-1,0.2-1.9,0.7-2.5c0.5-0.6,1.1-1,1.9-1c0.4,0,0.8,0.1,1.1,0.3s0.6,0.4,0.8,0.7l0.1-0.9h0.9v6.6
			c0,0.8-0.2,1.5-0.7,1.9c-0.5,0.4-1.2,0.7-2.1,0.7c-0.3,0-0.7,0-1-0.1c-0.4-0.1-0.7-0.2-1-0.4l0.3-0.9c0.2,0.1,0.5,0.2,0.8,0.3
			c0.3,0.1,0.6,0.1,0.9,0.1c0.6,0,1-0.1,1.3-0.4c0.3-0.3,0.4-0.7,0.4-1.2v-0.7c-0.2,0.3-0.5,0.5-0.8,0.6c-0.3,0.1-0.6,0.2-1,0.2
			c-0.8,0-1.4-0.3-1.9-0.9c-0.5-0.6-0.7-1.3-0.7-2.3V34.5z M193.3,34.6c0,0.7,0.1,1.2,0.4,1.6s0.7,0.6,1.3,0.6
			c0.4,0,0.7-0.1,0.9-0.2c0.2-0.2,0.4-0.4,0.6-0.7v-3c-0.2-0.3-0.4-0.5-0.6-0.7c-0.2-0.2-0.5-0.2-0.9-0.2c-0.6,0-1,0.2-1.3,0.7
			s-0.4,1.1-0.4,1.8V34.6z"/>
		<path class="st0" d="M203.1,37.7c-0.9,0-1.6-0.3-2.2-0.9c-0.5-0.6-0.8-1.4-0.8-2.4v-0.3c0-0.9,0.3-1.7,0.8-2.3
			c0.6-0.6,1.2-0.9,2-0.9c0.9,0,1.5,0.3,2,0.8c0.5,0.5,0.7,1.2,0.7,2.1v0.7h-4.2l0,0c0,0.6,0.2,1.1,0.5,1.5s0.7,0.6,1.3,0.6
			c0.4,0,0.8-0.1,1.1-0.2c0.3-0.1,0.6-0.3,0.8-0.5l0.5,0.8c-0.2,0.2-0.5,0.4-0.9,0.6C204.1,37.7,203.7,37.7,203.1,37.7z M202.9,31.9
			c-0.4,0-0.7,0.2-1,0.5c-0.3,0.3-0.5,0.8-0.5,1.3l0,0h3v-0.2c0-0.5-0.1-0.9-0.4-1.2C203.8,32,203.4,31.9,202.9,31.9z"/>
		<path class="st0" d="M209.1,31.1l0.1,0.9c0.2-0.3,0.5-0.5,0.8-0.7c0.3-0.2,0.7-0.3,1.1-0.3c0.4,0,0.8,0.1,1.1,0.3
			c0.3,0.2,0.5,0.5,0.7,0.9c0.2-0.4,0.5-0.7,0.8-0.9c0.3-0.2,0.7-0.3,1.2-0.3c0.7,0,1.2,0.2,1.6,0.7c0.4,0.5,0.6,1.1,0.6,2.1v3.9
			h-1.2v-3.9c0-0.6-0.1-1.1-0.3-1.4c-0.2-0.3-0.6-0.4-1-0.4c-0.4,0-0.7,0.1-1,0.4c-0.3,0.3-0.4,0.6-0.4,1.1v0v4.1H212v-3.9
			c0-0.6-0.1-1.1-0.3-1.3c-0.2-0.3-0.6-0.4-1-0.4c-0.4,0-0.7,0.1-0.9,0.2c-0.2,0.1-0.4,0.4-0.5,0.6v4.8H208v-6.5H209.1z"/>
		<path class="st0" d="M222.5,37.7c-0.9,0-1.6-0.3-2.2-0.9c-0.5-0.6-0.8-1.4-0.8-2.4v-0.3c0-0.9,0.3-1.7,0.8-2.3
			c0.6-0.6,1.2-0.9,2-0.9c0.9,0,1.5,0.3,2,0.8c0.5,0.5,0.7,1.2,0.7,2.1v0.7h-4.2l0,0c0,0.6,0.2,1.1,0.5,1.5s0.7,0.6,1.3,0.6
			c0.4,0,0.8-0.1,1.1-0.2c0.3-0.1,0.6-0.3,0.8-0.5l0.5,0.8c-0.2,0.2-0.5,0.4-0.9,0.6C223.5,37.7,223,37.7,222.5,37.7z M222.3,31.9
			c-0.4,0-0.7,0.2-1,0.5c-0.3,0.3-0.5,0.8-0.5,1.3l0,0h3v-0.2c0-0.5-0.1-0.9-0.4-1.2C223.2,32,222.8,31.9,222.3,31.9z"/>
		<path class="st0" d="M228.4,31.1l0.1,1c0.2-0.3,0.5-0.6,0.8-0.8c0.3-0.2,0.7-0.3,1.1-0.3c0.7,0,1.2,0.2,1.6,0.6s0.6,1,0.6,1.9v4.1
			h-1.2v-4.1c0-0.6-0.1-1-0.3-1.2s-0.6-0.4-1-0.4c-0.3,0-0.6,0.1-0.9,0.2c-0.3,0.2-0.5,0.4-0.6,0.7v4.8h-1.2v-6.5H228.4z"/>
		<path class="st0" d="M236.9,29.5v1.6h1.2V32h-1.2v4c0,0.3,0.1,0.5,0.2,0.6c0.1,0.1,0.3,0.2,0.5,0.2c0.1,0,0.1,0,0.2,0
			c0.1,0,0.2,0,0.2-0.1l0.2,0.8c-0.1,0.1-0.2,0.1-0.4,0.2c-0.2,0-0.3,0.1-0.5,0.1c-0.5,0-0.9-0.1-1.2-0.4s-0.4-0.7-0.4-1.4v-4h-1
			v-0.9h1v-1.6H236.9z"/>
		<path class="st0" d="M107.4,56.4c-0.2,0.3-0.6,0.6-1.1,0.9s-1.2,0.4-2,0.4c-1,0-1.9-0.3-2.6-1c-0.7-0.7-1-1.5-1-2.6v-1.8
			c0-1.1,0.3-1.9,1-2.6c0.6-0.7,1.5-1,2.5-1c1,0,1.8,0.2,2.4,0.7s0.9,1.1,0.9,1.9l0,0h-1.1c0-0.5-0.2-0.9-0.6-1.3
			c-0.4-0.3-0.9-0.5-1.5-0.5c-0.7,0-1.2,0.3-1.6,0.8c-0.4,0.5-0.6,1.1-0.6,1.9v1.8c0,0.8,0.2,1.4,0.7,1.9c0.5,0.5,1,0.8,1.7,0.8
			c0.5,0,0.9-0.1,1.2-0.2c0.3-0.1,0.5-0.3,0.7-0.5v-2h-1.9v-0.9h3.1V56.4z"/>
		<path class="st0" d="M111.4,57.6h-1.2v-9.4h1.2V57.6z"/>
		<path class="st0" d="M114,54.2c0-1,0.3-1.8,0.8-2.4c0.5-0.6,1.2-0.9,2.1-0.9c0.9,0,1.6,0.3,2.1,0.9c0.5,0.6,0.8,1.4,0.8,2.4v0.1
			c0,1-0.3,1.8-0.8,2.4c-0.5,0.6-1.2,0.9-2.1,0.9c-0.9,0-1.6-0.3-2.1-0.9c-0.5-0.6-0.8-1.4-0.8-2.4V54.2z M115.2,54.4
			c0,0.7,0.1,1.3,0.4,1.7c0.3,0.5,0.7,0.7,1.3,0.7c0.6,0,1-0.2,1.3-0.7c0.3-0.4,0.4-1,0.4-1.7v-0.1c0-0.7-0.1-1.3-0.4-1.7
			c-0.3-0.5-0.7-0.7-1.3-0.7c-0.6,0-1,0.2-1.3,0.7c-0.3,0.5-0.4,1-0.4,1.7V54.4z"/>
		<path class="st0" d="M127.8,54.5c0,0.9-0.2,1.7-0.7,2.3c-0.5,0.6-1.1,0.9-1.9,0.9c-0.4,0-0.8-0.1-1.1-0.3
			c-0.3-0.2-0.6-0.4-0.8-0.7l-0.1,0.9h-1v-9.4h1.2v3.7c0.2-0.3,0.5-0.5,0.8-0.7c0.3-0.2,0.7-0.2,1.1-0.2c0.8,0,1.4,0.3,1.9,1
			s0.7,1.5,0.7,2.5V54.5z M126.7,54.4c0-0.7-0.1-1.4-0.4-1.8s-0.7-0.7-1.3-0.7c-0.4,0-0.7,0.1-0.9,0.3c-0.3,0.2-0.5,0.4-0.6,0.7v2.8
			c0.2,0.3,0.4,0.6,0.6,0.8c0.2,0.2,0.6,0.3,0.9,0.3c0.6,0,1-0.2,1.2-0.6s0.4-0.9,0.4-1.6V54.4z"/>
		<path class="st0" d="M134.2,57.6c0-0.2-0.1-0.4-0.1-0.5c0-0.2,0-0.3,0-0.5c-0.2,0.3-0.5,0.6-0.9,0.8c-0.4,0.2-0.7,0.3-1.1,0.3
			c-0.7,0-1.2-0.2-1.6-0.5c-0.4-0.3-0.5-0.8-0.5-1.4c0-0.6,0.3-1.1,0.8-1.5c0.5-0.4,1.2-0.5,2.1-0.5h1.3v-0.6c0-0.4-0.1-0.7-0.3-0.9
			s-0.6-0.3-1-0.3c-0.4,0-0.7,0.1-0.9,0.3s-0.4,0.4-0.4,0.7h-1.1l0,0c0-0.5,0.2-0.9,0.7-1.3s1.1-0.6,1.8-0.6c0.7,0,1.3,0.2,1.8,0.6
			c0.5,0.4,0.7,0.9,0.7,1.6v3.1c0,0.2,0,0.5,0,0.7c0,0.2,0.1,0.4,0.1,0.6H134.2z M132.3,56.7c0.4,0,0.8-0.1,1.2-0.3
			c0.3-0.2,0.6-0.5,0.7-0.8v-1.1h-1.3c-0.5,0-0.9,0.1-1.1,0.4c-0.3,0.2-0.4,0.5-0.4,0.8c0,0.3,0.1,0.5,0.3,0.7
			C131.6,56.6,131.9,56.7,132.3,56.7z"/>
		<path class="st0" d="M139.2,57.6h-1.2v-9.4h1.2V57.6z"/>
		<path class="st0" d="M146.3,57.6v-8.8h2.7c1.2,0,2.1,0.4,2.8,1.1c0.7,0.7,1,1.6,1,2.7v1.2c0,1.1-0.3,2-1,2.7
			c-0.7,0.7-1.6,1.1-2.8,1.1H146.3z M147.5,49.7v6.9h1.5c0.8,0,1.5-0.3,1.9-0.8c0.5-0.5,0.7-1.2,0.7-2.1v-1.2c0-0.8-0.2-1.5-0.7-2
			c-0.5-0.5-1.1-0.8-1.9-0.8H147.5z"/>
		<path class="st0" d="M158,57.7c-0.9,0-1.6-0.3-2.2-0.9s-0.8-1.4-0.8-2.4v-0.3c0-0.9,0.3-1.7,0.8-2.3s1.2-0.9,2-0.9
			c0.9,0,1.5,0.3,2,0.8s0.7,1.2,0.7,2.1v0.7h-4.2l0,0c0,0.6,0.2,1.1,0.5,1.5s0.7,0.6,1.3,0.6c0.4,0,0.8-0.1,1.1-0.2
			c0.3-0.1,0.6-0.3,0.8-0.5l0.5,0.8c-0.2,0.2-0.5,0.4-0.9,0.6C159,57.6,158.6,57.7,158,57.7z M157.8,51.8c-0.4,0-0.7,0.2-1,0.5
			c-0.3,0.3-0.5,0.8-0.5,1.3l0,0h3v-0.2c0-0.5-0.1-0.9-0.4-1.2C158.7,52,158.3,51.8,157.8,51.8z"/>
		<path class="st0" d="M164.2,57.6H163v-9.4h1.2V57.6z"/>
		<path class="st0" d="M168.2,49.4H167v-1.2h1.2V49.4z M168.2,57.6H167V51h1.2V57.6z"/>
		<path class="st0" d="M173.1,55.6l0.1,0.5h0l0.1-0.5l1.5-4.6h1.2l-2.4,6.5h-0.9l-2.4-6.5h1.2L173.1,55.6z"/>
		<path class="st0" d="M180.7,57.7c-0.9,0-1.6-0.3-2.2-0.9s-0.8-1.4-0.8-2.4v-0.3c0-0.9,0.3-1.7,0.8-2.3s1.2-0.9,2-0.9
			c0.9,0,1.5,0.3,2,0.8s0.7,1.2,0.7,2.1v0.7h-4.2l0,0c0,0.6,0.2,1.1,0.5,1.5s0.7,0.6,1.3,0.6c0.4,0,0.8-0.1,1.1-0.2
			c0.3-0.1,0.6-0.3,0.8-0.5l0.5,0.8c-0.2,0.2-0.5,0.4-0.9,0.6C181.7,57.6,181.2,57.7,180.7,57.7z M180.5,51.8c-0.4,0-0.7,0.2-1,0.5
			c-0.3,0.3-0.5,0.8-0.5,1.3l0,0h3v-0.2c0-0.5-0.1-0.9-0.4-1.2C181.3,52,181,51.8,180.5,51.8z"/>
		<path class="st0" d="M188.6,52.1l-0.6,0c-0.3,0-0.6,0.1-0.8,0.2c-0.2,0.1-0.4,0.4-0.5,0.6v4.7h-1.2V51h1.1l0.1,1
			c0.2-0.3,0.4-0.6,0.7-0.8s0.6-0.3,0.9-0.3c0.1,0,0.2,0,0.3,0c0.1,0,0.1,0,0.2,0L188.6,52.1z"/>
		<path class="st0" d="M193.2,55.1l0.2,0.8h0l1.6-4.9h1.3l-2.7,7.5c-0.2,0.4-0.4,0.8-0.7,1.1c-0.3,0.3-0.7,0.5-1.2,0.5
			c-0.1,0-0.2,0-0.4,0c-0.1,0-0.3,0-0.3-0.1l0.1-0.9c0,0,0,0,0.2,0c0.2,0,0.3,0,0.3,0c0.3,0,0.5-0.1,0.6-0.3
			c0.2-0.2,0.3-0.5,0.4-0.7l0.3-0.7l-2.4-6.4h1.3L193.2,55.1z"/>
	</g>
	<rect x="90" y="5.2" class="st0" width="1" height="55"/>
</g>
</svg>
