<?xml version="1.0" encoding="utf-8"?>
<!-- Generator: Adobe Illustrator 21.0.2, SVG Export Plug-In . SVG Version: 6.00 Build 0)  -->
<svg version="1.1" id="Capa_1" xmlns="http://www.w3.org/2000/svg" xmlns:xlink="http://www.w3.org/1999/xlink" x="0px" y="0px"
	 viewBox="0 0 430.8 430.8" style="enable-background:new 0 0 430.8 430.8;" xml:space="preserve">
<g>
	<path d="M286.2,249.5l11-45.6c0-0.1,0.1-0.3,0.1-0.4c2.9-10.9,11.5-19.4,22.3-22.3l33.3-8.9c-5.5-6.5-13.7-10.7-22.8-10.7h-9.8
		c-2.5-7.9-5.7-15.6-9.5-23l7-7c11.6-11.6,11.6-30.5,0-42.2l-21-21c-5.6-5.6-13.1-8.7-21.1-8.7c-8,0-15.4,3.1-21.1,8.7l-7,7
		c-7.4-3.8-15.1-7-23-9.5V56c0-16.4-13.4-29.8-29.8-29.8h-29.8c-16.4,0-29.8,13.4-29.8,29.8v9.8c-7.9,2.5-15.6,5.7-23,9.5l-7-7
		c-5.6-5.6-13.1-8.7-21.1-8.7s-15.4,3.1-21.1,8.7l-21,21c-11.6,11.6-11.6,30.5,0,42.2l7,7c-3.8,7.4-7,15.1-9.5,23h-9.8
		C13.4,161.5,0,174.9,0,191.3v29.8c0,16.4,13.4,29.8,29.8,29.8h9.8c2.5,7.9,5.7,15.6,9.5,23l-7,7c-11.6,11.6-11.6,30.5,0,42.2l21,21
		c5.6,5.6,13.1,8.7,21.1,8.7s15.4-3.1,21.1-8.7l7-7c7.4,3.8,15.1,7,23,9.5v9.8c0,16.4,13.4,29.8,29.8,29.8h25.8
		c-2.4-5.7-3.6-11.9-3.6-18.2c0-12.6,4.9-24.4,13.8-33.3L286.2,249.5z M180,286.2c-44.1,0-80-35.9-80-80c0-44.1,35.9-80,80-80
		s80,35.9,80,80C260,250.3,224.1,286.2,180,286.2z"/>
	<path d="M425.3,218.7l-0.3-0.3c-0.9-0.9-2.2-1.4-3.5-1.5c-1.3,0-2.6,0.5-3.5,1.5L396.3,240c-3.3,3.3-7.7,5.1-12.4,5.1
		s-9.1-1.8-12.4-5.1c-3.3-3.3-5.1-7.7-5.1-12.4c0-4.7,1.8-9.1,5.1-12.4l21.6-21.6c0.9-0.9,1.5-2.2,1.5-3.5c0-1.3-0.5-2.6-1.5-3.5
		l-0.3-0.3c-3.6-3.6-8.4-5.6-13.5-5.6c-1.7,0-3.3,0.2-4.9,0.6L330,193.2c-6.6,1.8-11.7,6.9-13.5,13.5c0,0,0,0.1,0,0.1l-11.8,49.1
		L217,343.6c-6.5,6.5-10.1,15.2-10.1,24.4c0,9.2,3.6,17.9,10.1,24.4l2.1,2.1c6.5,6.5,15.2,10.1,24.4,10.1l0,0
		c9.2,0,17.9-3.6,24.4-10.1l87.7-87.7l49.1-11.8c0,0,0.1,0,0.1,0c6.6-1.8,11.7-6.9,13.5-13.5l11.9-44.4
		C432,230.6,430.1,223.5,425.3,218.7z M257.3,368.4c-1.9,1.9-4.4,2.9-7.1,2.9c-2.7,0-5.2-1-7.1-2.9c-1.9-1.9-2.9-4.4-2.9-7.1
		c0-2.7,1-5.2,2.9-7.1c1.9-1.9,4.4-2.9,7.1-2.9c2.7,0,5.2,1,7.1,2.9c1.9,1.9,2.9,4.4,2.9,7.1C260.2,364,259.1,366.5,257.3,368.4z
		 M316.2,305.9l-41.4,41.4c-1.4,1.4-3.3,2.2-5.3,2.2c-2,0-3.9-0.8-5.3-2.2c-1.4-1.4-2.2-3.3-2.2-5.3s0.8-3.9,2.2-5.3l41.4-41.4
		c1.4-1.4,3.3-2.2,5.3-2.2s3.9,0.8,5.3,2.2c1.4,1.4,2.2,3.3,2.2,5.3S317.6,304.5,316.2,305.9z"/>
</g>
</svg>
