<?xml version="1.0" encoding="utf-8"?>
<!-- Generator: Adobe Illustrator 21.0.2, SVG Export Plug-In . SVG Version: 6.00 Build 0)  -->
<svg version="1.1" id="Capa_1" xmlns="http://www.w3.org/2000/svg" xmlns:xlink="http://www.w3.org/1999/xlink" x="0px" y="0px"
	 viewBox="0 0 508 508" style="enable-background:new 0 0 508 508;" xml:space="preserve">
<g>
	<g>
		<path d="M0.1,352.5c0,66.8,54.1,120.9,120.9,120.9c66.8,0,120.9-54.1,120.9-120.9S187.8,231.6,121,231.6
			c-13.7,0-26.9,2.4-39.2,6.6C109.1,82.1,230.8-18.5,118,64.3C-7.1,156.2,0,348.8,0.1,352.4C0.1,352.4,0.1,352.5,0.1,352.5z"/>
		<path d="M266.2,352.5c0,66.8,54.1,120.9,120.9,120.9S508,419.3,508,352.5s-54.1-120.9-120.9-120.9c-13.7,0-26.9,2.4-39.2,6.6
			C375.2,82.1,496.9-18.5,384,64.3c-125.1,91.9-118,284.5-117.9,288.1C266.2,352.4,266.2,352.5,266.2,352.5z"/>
	</g>
</g>
</svg>
