<?xml version="1.0" encoding="iso-8859-1"?>
<!-- Generator: Adobe Illustrator 16.0.0, SVG Export Plug-In . SVG Version: 6.00 Build 0)  -->
<!DOCTYPE svg PUBLIC "-//W3C//DTD SVG 1.1//EN" "http://www.w3.org/Graphics/SVG/1.1/DTD/svg11.dtd">
<svg version="1.1" id="Capa_1" xmlns="http://www.w3.org/2000/svg" xmlns:xlink="http://www.w3.org/1999/xlink" x="0px" y="0px"
	 width="70.683px" height="70.684px" viewBox="0 0 70.683 70.684" style="enable-background:new 0 0 70.683 70.684;"
	 xml:space="preserve">
<g>
	<g id="_x33__x5F_3">
		<g>
			<path d="M69.855,66.189L51.076,47.378c4.168-5.01,6.681-11.45,6.681-18.482C57.755,12.938,44.84,0,28.908,0
				C12.975,0,0.058,12.938,0.058,28.896c0,15.959,12.917,28.896,28.85,28.896c7.02,0,13.45-2.517,18.453-6.692L66.14,69.912
				c0.514,0.515,1.186,0.771,1.857,0.771s1.344-0.258,1.857-0.771C70.882,68.885,70.882,67.219,69.855,66.189z M28.908,52.527
				c-13.01,0-23.594-10.602-23.594-23.632c0-13.03,10.583-23.632,23.594-23.632c13.007,0,23.593,10.602,23.593,23.632
				C52.501,41.927,41.916,52.527,28.908,52.527z"/>
		</g>
	</g>
</g>
<g>
</g>
<g>
</g>
<g>
</g>
<g>
</g>
<g>
</g>
<g>
</g>
<g>
</g>
<g>
</g>
<g>
</g>
<g>
</g>
<g>
</g>
<g>
</g>
<g>
</g>
<g>
</g>
<g>
</g>
</svg>
